# xmcd
#
# Track frame offsets: 
#        150
#        13177
#        36321
#        51510
#        74040
#        87408
#        107962
#        127382
#
# Disc length: 1932 seconds
#
# Revision: 0
# Processed by: cddbd v1.5.2PL0 Copyright (c) Steve Scherf et al.
# Submitted via: ExactAudioCopy v1.0b3
#
DISCID=81078a08
DTITLE=Viikate - Panosvyö
DYEAR=2014
DGENRE=rock
TTITLE0=Luuvitonen (Iron Fist)
TTITLE1=Kuollut ja hengetön (Killed by Death)
TTITLE2=Vihtahousu (Boogeyman)
TTITLE3=Ainoa (One Track Mind)
TTITLE4=Yli äyräiden (Over the Top)
TTITLE5=Kylmä, kylmä kivi (Stone Dead Forever)
TTITLE6=Pahat (Devils)
TTITLE7=1916 (1916)
EXTD=
EXTT0=
EXTT1=
EXTT2=
EXTT3=
EXTT4=
EXTT5=
EXTT6=
EXTT7=
PLAYORDER=
